<svg width="40" height="40" viewBox="0 0 40 40" fill="none" xmlns="http://www.w3.org/2000/svg">
<path fill-rule="evenodd" clip-rule="evenodd" d="M0.0431029 21.3011C0.0248053 21.2703 0.0159075 21.244 0 21.2134V32.257C0 36.5318 3.46851 39.9994 7.74337 39.9994L32.2595 39.9993C36.5346 39.9993 40 36.532 40 32.2572V30.0685C26.8678 35.7079 9.70457 31.9177 0.0431029 21.3011Z" fill="#E51A4B"/>
<path fill-rule="evenodd" clip-rule="evenodd" d="M39.3378 4.61374C38.1312 1.89725 35.4199 0.000160364 32.2596 0.000160364L7.74337 0C3.46852 0 0 3.46287 0 7.74139V14.9726C15.252 17.4968 22.5452 6.8351 39.3378 4.61374Z" fill="#B0CB1F"/>
<path fill-rule="evenodd" clip-rule="evenodd" d="M0 18.8901V19.8674C3.61935 25.7278 21.6789 35.565 40 28.4549V22.0806C27.7836 28.0906 10.974 27.6023 0 18.8901Z" fill="#FBBA00"/>
<path fill-rule="evenodd" clip-rule="evenodd" d="M39.7043 5.64355C24.0399 8.31677 16.4128 19.0045 0 16.5931V17.5446C7.02699 23.5242 24.1315 28.8313 40 20.5132V7.74005C40 7.01352 39.8916 6.31193 39.7043 5.64371V5.64355Z" fill="#40BFEE"/>
</svg>
